<svg version="1.1" id="Слой_1" xmlns="http://www.w3.org/2000/svg" x="0" y="0" viewBox="0 0 512 512" xml:space="preserve"><style>.st0{fill:#fff}</style><path class="st0" d="M368 256h-64c-8.8 0-16 7.2-16 16v128c0 8.8 7.2 16 16 16h64c17.7 0 32-14.3 32-32v-96c0-17.7-14.3-32-32-32zm0 128h-48v-96h48v96zm144-96v-32h-80c-8.8 0-16 7.2-16 16v144h32v-64h64v-32h-64v-32h64z"/><path class="st0" d="M32 464V48c0-8.8 7.2-16 16-16h240v64c0 17.7 14.3 32 32 32h64v48h32v-64c0-4.3-1.6-8.3-4.6-11.4l-96-96c-3-3-7.1-4.7-11.4-4.6H48C21.5 0 0 21.5 0 48v416c0 26.5 21.5 48 48 48h112v-32H48c-8.8 0-16-7.2-16-16z"/><path class="st0" d="M240 256h-64c-8.8 0-16 7.2-16 16v144h32v-48h48c17.7 0 32-14.3 32-32v-48c0-17.7-14.3-32-32-32zm0 80h-48v-48h48v48z"/></svg>