<svg version="1.1" id="Слой_1" xmlns="http://www.w3.org/2000/svg" x="0" y="0" viewBox="0 0 580 580" xml:space="preserve"><linearGradient id="Фигура_1_копия_1_" gradientUnits="userSpaceOnUse" x1="2206.607" y1="1700.468" x2="1678.611" y2="1172.472" gradientTransform="translate(-1681.72 -1126.476)"><stop offset="0" stop-color="#1040ad"/><stop offset="1" stop-color="#1fcccc"/></linearGradient><path id="Фигура_1_копия" d="M308.4 537.1c265.3-42.2 349.8-154.4 186.3-377.5S234-3.2 81.6 190.4-9.8 587.7 308.4 537.1z" fill="url(#Фигура_1_копия_1_)"/><path id="Фигура_1_копия_2" d="M175.5 514.4c23.5 9.2 45.9 17.2 67.3 24 164.8-11 244.3-40.4 292.5-88.6 8.4-38.2 8-86.5.3-145.5-35-265.5-153.4-266.8-389.5-188.4-1 .3-2 .7-3 1C59.2 229.6-6.4 289.9 3.8 409.5c35.8 37.6 92.1 73.6 171.7 104.9z" opacity=".5" fill="#1fcccc"/><path id="Фигура_1" d="M251.9 82c-236.4 77.1-297.4 192.5-116 374s261.6 112.1 373-88 26.5-378.5-257-286z" opacity=".2" fill="#1040ad"/><path id="Фигура_1_копия_3" d="M241.9 84C5.5 161.1-55.5 276.5 125.9 458s261.6 112.1 373-88 26.5-378.5-257-286z" fill="#1040ad"/></svg>