<svg version="1.1" id="Слой_1" xmlns="http://www.w3.org/2000/svg" x="0" y="0" viewBox="0 0 500 500" xml:space="preserve"><linearGradient id="Фигура_8_1_" gradientUnits="userSpaceOnUse" x1="2186.679" y1="5131.039" x2="1768.179" y2="4712.54" gradientTransform="translate(-1754.63 -4654.81)"><stop offset="0" stop-color="#1040ad"/><stop offset="1" stop-color="#1fcccc"/></linearGradient><path id="Фигура_8" d="M84.2 133.4c-149.3 136.2-35.7 379.8 99 300 154.1-91.3 414.9-48.2 251-257s-215.4-165.8-350-43z" fill="url(#Фигура_8_1_)"/><linearGradient id="Фигура_8_копия_1_" gradientUnits="userSpaceOnUse" x1="2143.736" y1="5091.716" x2="1812.707" y2="4760.688" gradientTransform="translate(-1754.63 -4654.81)"><stop offset="0" stop-color="#1040ad"/><stop offset="1" stop-color="#1fcccc"/></linearGradient><path id="Фигура_8_копия" d="M336.4 377.1c115.9-103.4 41.2-296.6-70.8-242.5-77.2 37.3-180.8 34.6-229.9 62.2-13.8 26-18.6 48.6-21.1 76.4 5.6 15.1 15 32.8 28.6 53.6 42.7 65.1 75.9 102.8 106.3 120.2 108.8-47.4 173.8-65.7 186.9-69.9z" fill="url(#Фигура_8_копия_1_)"/><path id="Фигура_9" d="M256.8 76.9C51.4 26.5-48.8 168.2 95.6 339.6s229.1 174.5 325.9 1.1 81.1-203.5-164.7-263.8z" opacity=".2" fill="#1fcccc"/></svg>