<svg version="1.1" id="Слой_1" xmlns="http://www.w3.org/2000/svg" x="0" y="0" viewBox="0 0 512 512" xml:space="preserve"><linearGradient id="SVGID_1_" gradientUnits="userSpaceOnUse" x1="37" y1="258" x2="475" y2="258" gradientTransform="matrix(1 0 0 -1 0 514)"><stop offset="0" stop-color="#1040ad"/><stop offset="1" stop-color="#1fcccc"/></linearGradient><path d="M455 352c11 0 20-9 20-20V80c0-44.1-35.9-80-80-80H117C72.9 0 37 35.9 37 80v352c0 44.1 35.9 80 80 80h278c44.1 0 80-35.9 80-80 0-11-9-20-20-20s-20 9-20 20c0 22.1-17.9 40-40 40H117c-22.1 0-40-17.9-40-40V80c0-22.1 17.9-40 40-40h278c22.1 0 40 17.9 40 40v252c0 11 9 20 20 20zm-80 40h-80c-11 0-20 9-20 20s9 20 20 20h80c11 0 20-9 20-20s-9-20-20-20zM137 240c-11 0-20 9-20 20s9 20 20 20 21.1-9 21.1-20-10.1-20-21.1-20zm80 0c11 0 20 9 20 20s-9 20-20 20-20-9-20-20 9-20 20-20zm79 0c11 0 20 9 20 20s-9 20-20 20-20-9-20-20 9-20 20-20zm-159 76c-11 0-20 9-20 20s9 20 20 20 21-9 21-20-10-20-21-20zm80 0c11 0 20 9 20 20s-9 20-20 20-20-9-20-20 9-20 20-20zm79 0c11 0 20 9 20 20s-9 20-20 20-20-9-20-20 9-20 20-20zm79-76c11 0 20 9 20 20s-9 20-20 20-20-9-20-20 9-20 20-20zM137 392c11 0 20 9 20 20s-9 20-20 20-20-9-20-20 9-20 20-20zm238-76c11 0 20 9 20 20s-9 20-20 20-20-9-20-20 9-20 20-20zm-159 76c11 0 20 9 20 20s-9 20-20 20-20-9-20-20 9-20 20-20z" fill="url(#SVGID_1_)"/><linearGradient id="SVGID_2_" gradientUnits="userSpaceOnUse" x1="117" y1="374" x2="395" y2="374" gradientTransform="matrix(1 0 0 -1 0 514)"><stop offset="0" stop-color="#1040ad"/><stop offset="1" stop-color="#1fcccc"/></linearGradient><path d="M375 80H137c-11 0-20 9-20 20v80c0 11 9 20 20 20h238c11 0 20-9 20-20v-80c0-11-9-20-20-20zm-20 80H157v-40h198v40z" fill="url(#SVGID_2_)"/></svg>