<svg version="1.1" id="Слой_1" xmlns="http://www.w3.org/2000/svg" x="0" y="0" viewBox="0 0 512 512" xml:space="preserve"><linearGradient id="SVGID_1_" gradientUnits="userSpaceOnUse" x1="11" y1="258" x2="501" y2="258" gradientTransform="matrix(1 0 0 -1 0 514)"><stop offset="0" stop-color="#1040ad"/><stop offset="1" stop-color="#1fcccc"/></linearGradient><path d="M481 371c11 0 20-9 20-20v-92c0-33.1-26.9-60-60-60h-39v-79c0-44.1-35.9-80-80-80h-47.5c-7.7-23.7-29.9-40-55.2-40h-25.6c-25.3 0-47.4 16.3-55.2 40H91c-44.1 0-80 35.9-80 80v312c0 44.1 35.9 80 80 80h88c11 0 20-9 20-20s-9-20-20-20H91c-22.1 0-40-17.9-40-40V120c0-22.1 17.9-40 40-40h2v59c0 11 9 20 20 20h189c11 0 20-9 20-20V80c22.1 0 40 17.9 40 40v79h-65c-33.1 0-60 26.9-60 60v193c0 33.1 26.9 60 60 60l144-.1c33.1 0 60-26.9 60-60 0-11-9-20-20-20s-20 9-20 20-9 20-20 20l-144 .1c-11 0-20-9-20-20V259c0-11 9-20 20-20h144c11 0 20 9 20 20v92c0 11 9 20 20 20zM282 119H133V80h21c9.2 0 17.2-6.2 19.4-15.1l2.8-11.2c2-8 9.2-13.7 17.5-13.7h25.6c8.3 0 15.5 5.6 17.5 13.7l2.8 11.2C241.8 73.8 249.8 80 259 80h23v39z" fill="url(#SVGID_1_)"/><linearGradient id="SVGID_2_" gradientUnits="userSpaceOnUse" x1="317" y1="180" x2="421" y2="180" gradientTransform="matrix(1 0 0 -1 0 514)"><stop offset="0" stop-color="#1040ad"/><stop offset="1" stop-color="#1fcccc"/></linearGradient><path d="M401 279h-64c-11 0-20 9-20 20s9 20 20 20h64c11 0 20-9 20-20s-9-20-20-20zm0 70h-64c-11 0-20 9-20 20s9 20 20 20h64c11 0 20-9 20-20s-9-20-20-20z" fill="url(#SVGID_2_)"/></svg>