<svg version="1.1" id="Слой_1" xmlns="http://www.w3.org/2000/svg" x="0" y="0" viewBox="0 0 512 512" xml:space="preserve"><linearGradient id="SVGID_1_" gradientUnits="userSpaceOnUse" x1="-2.919" y1="445.98" x2="443.731" y2="-.67" gradientTransform="matrix(1 0 0 -1 0 514)"><stop offset="0" stop-color="#1040ad"/><stop offset="1" stop-color="#1fcccc"/></linearGradient><path d="M512 412.5c-.7-19.8-9-38.3-23.2-52-27.9-26.9-51.3-42.5-73.6-48.9-30.7-8.9-59.2-.8-84.6 24l-.1.1-27 26.8c-16.9-9.5-49.8-30.4-85.3-65.9l-2.6-2.6c-35.7-35.6-56.6-68.5-66.2-85.4l26.8-27 .1-.1c24.8-25.4 32.9-53.9 24-84.6-6.4-22.3-22-45.7-48.9-73.6C137.6 9 119.2.8 99.4.1S60.6 6.3 45.8 19.5l-.6.5c-.3.2-.5.5-.8.7C15 50.1-.3 91.2-.1 139.6c.4 82.2 45.6 176.2 120.9 251.5 14.2 14.2 30.3 28.2 48 41.8 8.8 6.7 21.3 5.1 28-3.7 6.7-8.8 5.1-21.3-3.7-28-16.2-12.4-31-25.3-44-38.3-68-68-108.8-151.5-109.2-223.4-.2-37.3 11-68.4 32.4-90l.2-.1c14.5-13 36.5-12.3 50.1 1.8 51.8 53.7 48 79 25.1 102.5l-37.1 37.4c-5.8 5.9-7.4 14.7-4.1 22.2.9 2.1 23.7 52.4 80.4 109.1l2.6 2.6c56.7 56.7 107 79.5 109.1 80.4 7.5 3.4 16.4 1.7 22.2-4.1l37.4-37.1c23.5-22.9 48.8-26.6 102.5 25.2 14.1 13.6 14.9 35.6 1.8 50.1l-.1.2c-21.4 21.2-52.2 32.4-89.1 32.4h-.9c-29.5-.1-63.6-8.2-98.7-23.4-10.1-4.4-21.9.3-26.3 10.4s.3 21.9 10.4 26.3c40.6 17.5 79 26.5 114.3 26.6h1.1c47.9 0 88.6-15.4 117.7-44.5.3-.3.5-.5.7-.8l.5-.6c13.7-14.8 20.6-33.8 19.9-53.6z" fill="url(#SVGID_1_)"/></svg>