<svg id="question" xmlns="http://www.w3.org/2000/svg" width="18" height="18"><circle id="Эллипс_1_копия" data-name="Эллипс 1 копия" cx="9" cy="9" r="9" fill="#e5e5e5"/><path id="_копия" data-name="? копия" d="M1646.69 1218.89a3.754 3.754 0 01.03-.54 1.43 1.43 0 01.19-.48 1.789 1.789 0 01.25-.31 3.125 3.125 0 01.32-.3 5.253 5.253 0 001.04-1.3 2.387 2.387 0 00.27-1.13 2.331 2.331 0 00-.15-.82 2.052 2.052 0 00-.41-.7 2.149 2.149 0 00-.97-.68 3.944 3.944 0 00-1.25-.2 2.9 2.9 0 00-.86.13 2.612 2.612 0 00-.77.37 2.238 2.238 0 00-.7.82 3.032 3.032 0 00-.33 1.12h1.52a1.4 1.4 0 01.08-.47.919.919 0 01.27-.35 1.056 1.056 0 01.38-.2 1.78 1.78 0 01.47-.06 1.686 1.686 0 01.56.09.923.923 0 01.43.32.537.537 0 01.15.3 1.5 1.5 0 01.05.37 2.012 2.012 0 01-.08.57 1.316 1.316 0 01-.33.54 5.954 5.954 0 01-.54.51 4.287 4.287 0 00-.45.38 1.841 1.841 0 00-.36.5 2.474 2.474 0 00-.26.72 3.561 3.561 0 00-.08.8h1.53zm0 2.35v-1.59h-1.52v1.59h1.52z" transform="translate(-1637 -1208)" fill="#fff" fill-rule="evenodd"/></svg>