<svg version="1.1" id="Слой_1" xmlns="http://www.w3.org/2000/svg" x="0" y="0" viewBox="0 0 100 100" xml:space="preserve"><style>.st0{fill:#fff}</style><path class="st0" d="M45.3 69.5c-7.4-.8-14.1-2.6-19.8-7.1-.7-.6-1.4-1.1-2.1-1.7-2.5-2.4-2.8-5.2-.8-8 1.7-2.4 4.5-3.1 7.5-1.7.6.3 1.1.6 1.6 1 10.6 7.3 25.3 7.5 36 .3 1.1-.8 2.2-1.5 3.5-1.8 2.6-.7 4.9.3 6.3 2.5 1.6 2.5 1.5 5-.4 7-3 3-6.5 5.2-10.5 6.8-3.7 1.4-7.8 2.2-11.9 2.7.6.7.9 1 1.3 1.4 5.5 5.5 11 11 16.5 16.6 1.9 1.9 2.3 4.2 1.2 6.4-1.1 2.4-3.6 4-6.1 3.8-1.6-.1-2.8-.9-3.9-2-4.1-4.2-8.4-8.3-12.4-12.5-1.2-1.2-1.8-1-2.8.1-4.2 4.3-8.4 8.5-12.7 12.7-1.9 1.9-4.2 2.2-6.4 1.2-2.4-1.1-3.9-3.6-3.7-6 .1-1.6.9-2.9 2-4L44 70.9c.4-.4.8-.8 1.3-1.4z"/><path class="st0" d="M49.8 50.6c-13.2 0-24-11-24-24.2.1-13.4 11-24.2 24.3-24.1 13.4 0 24.1 11 24 24.5 0 13.1-11 23.8-24.3 23.8zm12-24.2c0-6.6-5.3-11.8-11.8-11.8-6.6 0-11.9 5.3-11.8 11.9 0 6.5 5.3 11.7 11.9 11.7 6.5 0 11.7-5.2 11.7-11.8z"/></svg>