<svg version="1.1" id="Слой_1" xmlns="http://www.w3.org/2000/svg" x="0" y="0" viewBox="0 0 100 100" xml:space="preserve"><path d="M96.8 27.1c-1.2-5.2-5.4-9-10.5-9.5-12-1.3-24.2-1.3-36.3-1.3-12.1 0-24.3 0-36.3 1.3-5.1.6-9.3 4.4-10.5 9.5C1.6 34.4 1.6 42.4 1.6 50s0 15.6 1.7 22.9c1.2 5.2 5.4 9 10.5 9.5 12 1.3 24.2 1.3 36.3 1.3 12.1 0 24.3 0 36.3-1.3 5.1-.6 9.3-4.4 10.5-9.5 1.7-7.3 1.7-15.3 1.7-22.9-.2-7.6-.1-15.6-1.8-22.9zM37.5 65V33C47.8 38.4 58 43.7 68.3 49.1 58 54.4 47.8 59.7 37.5 65z" fill="#fff"/></svg>