<svg version="1.1" id="Слой_1" xmlns="http://www.w3.org/2000/svg" x="0" y="0" viewBox="0 0 100 100" xml:space="preserve"><path d="M49.5 5c-18.5 0-31.4.1-38 6.5C5.1 18.1 5 31.6 5 49.5c19.9-.6 29-1.1 36.3-8.2C48.4 34 48.9 24.9 49.5 5zm-38 83.5C5.1 81.9 5 68.4 5 50.5c19.9.6 29 1.1 36.3 8.2 7.1 7.3 7.6 16.4 8.2 36.3-18.5 0-31.4-.1-38-6.5zm39 6.5c.6-19.9 1.1-29 8.2-36.3 7.3-7.1 16.4-7.6 36.3-8.2 0 17.9-.1 31.4-6.5 38-6.6 6.4-19.5 6.5-38 6.5zm0-90c.6 19.9 1.1 29 8.2 36.3 7.3 7.1 16.4 7.6 36.3 8.2 0-17.9-.1-31.4-6.5-38C81.9 5.1 69 5 50.5 5z" fill="#fff"/></svg>