<svg version="1.1" id="Слой_1" xmlns="http://www.w3.org/2000/svg" x="0" y="0" viewBox="0 0 200 100" xml:space="preserve"><path d="M101.1 41.7V44h-1.2v-1.1h-7.4v-9.1h1.2v7.9h5v-7.9h1.2v7.9h1.2zm2.7-.5c.4.5.9.7 1.5.7s1.2-.2 1.5-.7c.1-.1.1-.2.2-.3l1.2.5c-.1.2-.2.4-.4.6-.6.7-1.6 1.1-2.6 1.1s-1.9-.4-2.5-1.1-.8-1.6-.8-2.5.2-1.8.8-2.5 1.5-1.1 2.5-1.1 1.9.4 2.5 1.1.8 1.6.8 2.5v.3h-5.3c.1.5.4 1 .6 1.4zm0-3.5c-.2.3-.4.7-.4 1.1h3.9c-.1-.4-.2-.8-.4-1.1-.4-.5-.9-.7-1.5-.7s-1.3.2-1.6.7zm12.1-1.7v6.8h-1.2v-3h-3.5v3H110V36h1.2v2.6h3.5V36h1.2zm7.2 1.1h-2.4v5.7h-1.2v-5.7h-2.4V36h5.9l.1 1.1zm7.7 2.4c0 .9-.2 1.8-.8 2.5-.6.7-1.4 1.1-2.4 1.1-.8 0-1.5-.3-2.1-.8v3.6h-1.2V36h1.1v.7c.6-.6 1.4-.9 2.2-.9.9 0 1.8.4 2.4 1.1.6.7.8 1.7.8 2.6zm-1.4 0c0-.7-.1-1.3-.5-1.8s-.9-.7-1.6-.7c-.6 0-1.2.2-1.5.7-.4.5-.5 1.1-.5 1.8s.2 1.4.5 1.8c.4.4.9.7 1.5.7s1.2-.2 1.5-.7c.5-.5.6-1.2.6-1.8zM95.6 49.6c.6 0 1.1.2 1.5.5.4.4.7.9.7 1.4 0 .4-.1.7-.3 1.1-.1.1-.2.2-.2.3.2.2.4.3.5.5.2.3.4.7.4 1.1 0 .6-.3 1.1-.7 1.5-.4.3-.9.5-1.3.5h-3.9v-6.8l3.3-.1zm-2.2 3h2.1c.3 0 .5-.1.7-.3.1-.2.2-.4.2-.6 0-.2-.1-.4-.2-.6-.2-.2-.4-.4-.7-.4h-2.1v1.9zm0 2.9h2.4c.3 0 .5-.1.7-.3.2-.2.2-.4.2-.7 0-.2-.1-.5-.2-.6-.2-.3-.5-.3-.8-.3h-2.3v1.9zm6.4.1c-.6-.7-.8-1.6-.8-2.5s.2-1.8.8-2.5 1.5-1.1 2.5-1.1 1.9.4 2.5 1.1.8 1.6.8 2.5-.2 1.8-.8 2.5c-.6.8-1.5 1.1-2.5 1.1-.9 0-1.9-.4-2.5-1.1zm4.6-2.5c0-.6-.1-1.3-.5-1.8s-.9-.7-1.6-.7c-.6 0-1.2.2-1.5.7-.4.5-.5 1.1-.5 1.8 0 .6.1 1.3.5 1.7.3.5.9.7 1.5.7s1.2-.2 1.6-.7.5-1.1.5-1.7zm3.5-3.3c.5-.3 1.2-.4 1.8-.4s1.3.1 1.7.4c.7.4 1.1 1 1.1 1.7 0 .6-.2 1-.6 1.4.5.4.7.9.7 1.6 0 .8-.5 1.5-1.1 1.8-.6.3-1.2.4-1.9.4-.6 0-1.3-.1-1.9-.4-.6-.3-1-.8-1.1-1.4l1.2-.3c.1.3.2.5.5.7s.8.3 1.2.3.9-.1 1.2-.3.5-.5.5-.8c0-.5-.2-.7-.7-.8-.3-.1-.7-.1-1-.1h-.6v-1h.6c.3 0 .7 0 1-.1.5-.2.6-.4.6-.8 0-.3-.2-.6-.5-.7-.3-.2-.7-.3-1.1-.3s-.8.1-1.1.3c-.3.2-.4.3-.4.6l-1.2-.3c.3-.8.6-1.2 1.1-1.5zm13.4-.2v6.8h-1.2v-4.2l-2 3.3h-.8l-2-3.3v4.2h-1.2v-6.8h1.1l2.5 4.2 2.5-4.2h1.1zm3.1 5.2c.4.5.9.7 1.5.7s1.2-.2 1.5-.7c.1-.1.1-.2.2-.3l1.3.5c-.1.2-.2.4-.4.6-.6.7-1.6 1.1-2.6 1.1s-1.9-.4-2.5-1.1-.8-1.6-.8-2.5.2-1.8.8-2.5 1.5-1.1 2.5-1.1 1.9.4 2.5 1.1.8 1.6.8 2.5v.3h-5.3c0 .5.2 1 .5 1.4zm0-3.5c-.2.3-.4.7-.4 1.1h3.9c-.1-.4-.2-.8-.4-1.1-.4-.5-.9-.7-1.5-.7-.7 0-1.2.3-1.6.7zm15.2 4v2.3h-1.2v-1.1h-7.6v-6.8h1.1v5.6h2.2v-5.6h1.1v5.6h2.2v-5.6h1.1v5.6h1.1zm2.7-.5c.4.5.9.7 1.5.7s1.2-.2 1.5-.7c.1-.1.1-.2.2-.3l1.2.5c-.1.2-.2.4-.4.6-.6.7-1.6 1.1-2.6 1.1s-1.9-.4-2.5-1.1-.8-1.6-.8-2.5.2-1.8.8-2.5 1.5-1.1 2.5-1.1 1.9.4 2.5 1.1.8 1.6.8 2.5v.3h-5.3c.1.5.4 1 .6 1.4zm0-3.5c-.2.3-.4.7-.4 1.1h3.9c-.1-.4-.2-.8-.4-1.1-.4-.5-.9-.7-1.5-.7s-1.3.3-1.6.7zm12.1-1.7v6.8h-1.2v-3h-3.5v3h-1.2v-6.8h1.2v2.6h3.5v-2.6h1.2zm7.7 6.9h-1.2v-4.9l-3.5 4.9h-1.1v-6.8h1.2v4.8l3.5-4.8h1.1v6.8zm6 0v-2.4h-2l-1.2 2.4h-1.4l1.3-2.6c-.2-.1-.5-.2-.6-.4-.4-.4-.6-1-.6-1.6s.2-1.2.6-1.6c.4-.4 1-.6 1.6-.6h3.6v6.8h-1.3zm0-3.6v-2.1h-2.3c-.3 0-.5.1-.7.3-.2.2-.3.4-.3.7 0 .3.1.5.3.7.2.2.4.3.7.3l2.3.1zM95.4 63.3c.6 0 1.1.2 1.5.5.4.4.7.9.7 1.4 0 .4-.1.7-.3 1.1-.1.1-.2.2-.2.3.2.2.4.3.5.5.2.3.4.7.4 1.1 0 .6-.3 1.1-.7 1.5-.4.3-.9.5-1.3.5h-3.9v-6.8l3.3-.1zm-2.1 2.9h2.1c.3 0 .5-.1.7-.3.1-.2.2-.4.2-.6s-.1-.4-.2-.6c-.2-.2-.4-.4-.7-.4h-2.1v1.9zm0 2.9h2.4c.3 0 .5-.1.7-.3.2-.2.2-.4.2-.7 0-.2-.1-.5-.2-.6-.2-.3-.5-.3-.8-.3h-2.3v1.9zm12.5-2.4c0 .9-.2 1.8-.8 2.5-.6.7-1.4 1.1-2.4 1.1-.8 0-1.5-.3-2.1-.8v3.6h-1.2v-9.9h1.1v.8c.6-.6 1.4-.9 2.2-.9.9 0 1.8.4 2.4 1.1.6.6.8 1.6.8 2.5zm-1.2 0c0-.7-.1-1.3-.5-1.8s-.9-.7-1.6-.7c-.6 0-1.2.2-1.5.7-.4.5-.5 1.1-.5 1.8s.2 1.4.5 1.8c.4.4.9.7 1.5.7s1.2-.2 1.5-.7c.4-.5.6-1.2.6-1.8zm4 1.7c.4.5.9.7 1.5.7s1.2-.2 1.5-.7c.1-.1.1-.2.2-.3l1.2.5c-.1.2-.2.4-.4.6-.6.7-1.6 1.1-2.6 1.1s-1.9-.4-2.5-1.1-.8-1.6-.8-2.5.2-1.8.8-2.5c.6-.7 1.5-1.1 2.5-1.1s1.9.4 2.5 1.1.8 1.6.8 2.5v.3H108c.3.5.3 1 .6 1.4zm0-3.5c-.2.3-.4.7-.4 1.1h3.9c-.1-.4-.2-.8-.4-1.1-.4-.5-.9-.7-1.5-.7s-1.3.3-1.6.7zm12.2 4h.6V71h-1.2v-.9h-4.7v.9h-1.2v-2.1c.5 0 1.2-.5 1.4-2.3l.4-3.4h4.7v5.7zm-1.2-4.5h-2.5l-.3 2.4c-.1 1-.3 1.7-.7 2.2h3.5v-4.6zm3.2.1l.2-.3c.6-.8 1.5-1.2 2.6-1.2 1.3 0 2.3.4 2.8 1.5.2.4.3.9.3 1.3v4.3h-1.1v-1.3c-.2.5-.7.9-1.1 1.1-.5.3-1.1.4-1.7.4-.7 0-1.4-.4-1.8-.9-.3-.4-.4-.8-.4-1.3 0-.7.4-1.4 1-1.8.7-.4 1.4-.5 2.5-.6l1.3-.2c-.1-.4-.2-.7-.5-.9-.4-.3-.8-.4-1.3-.4-.6 0-1.1.2-1.4.6l-.2.2-1.2-.5zm3 2.3c-1 .2-2.1.3-2.1 1.2 0 .6.5 1.1 1.2 1.1.9 0 1.9-.4 2.3-1.3.2-.5.2-.9.2-1.3-.3.1-.8.2-1.6.3zm8-3.4c.5-.3 1.2-.4 1.8-.4s1.3.1 1.7.4c.7.4 1.1 1 1.1 1.7 0 .6-.2 1-.6 1.4.5.4.7.9.7 1.6 0 .8-.5 1.5-1.1 1.8-.6.3-1.2.4-1.9.4-.6 0-1.3-.1-1.9-.4-.6-.3-1-.8-1.1-1.4l1.2-.3c.1.3.2.5.5.7.3.2.8.3 1.2.3.5 0 .9-.1 1.2-.3.3-.2.5-.5.5-.8 0-.5-.2-.7-.7-.9-.3-.1-.7-.1-1-.1h-.5v-1h.6c.3 0 .7 0 1-.1.5-.2.6-.4.6-.8 0-.3-.2-.6-.5-.7-.3-.2-.7-.3-1.1-.3-.4 0-.8.1-1.1.3-.3.2-.4.3-.4.6l-1.2-.3c.1-.7.5-1.1 1-1.4zm12 5.5h.6V71h-1.2v-.9h-4.7v.9h-1.2v-2.1c.5 0 1.2-.5 1.4-2.3l.4-3.4h4.7v5.7zm-1.2-4.5h-2.5l-.3 2.4c-.1 1-.3 1.7-.7 2.2h3.5v-4.6zm3.7 4.8c-.6-.7-.8-1.6-.8-2.5s.2-1.8.8-2.5c.6-.7 1.5-1.1 2.5-1.1s1.9.4 2.5 1.1.8 1.6.8 2.5-.2 1.8-.8 2.5c-.6.8-1.5 1.1-2.5 1.1-.9 0-1.9-.4-2.5-1.1zm4.6-2.5c0-.6-.1-1.3-.5-1.8s-.9-.7-1.6-.7c-.6 0-1.2.2-1.5.7-.4.5-.5 1.1-.5 1.8 0 .6.1 1.3.5 1.7.3.5.9.7 1.5.7s1.2-.2 1.6-.7c.4-.5.5-1.1.5-1.7zm9.2 0c0 .9-.2 1.8-.8 2.5-.6.7-1.4 1.1-2.4 1.1-.8 0-1.5-.3-2.1-.8v3.6h-1.2v-9.9h1.1v.8c.6-.6 1.4-.9 2.2-.9.9 0 1.8.4 2.4 1.1.5.6.8 1.6.8 2.5zm-1.3 0c0-.7-.1-1.3-.5-1.8s-.9-.7-1.6-.7c-.6 0-1.2.2-1.5.7-.4.5-.5 1.1-.5 1.8s.2 1.4.5 1.8c.4.4.9.7 1.5.7s1.2-.2 1.5-.7c.4-.5.6-1.2.6-1.8zm3.1 2.5c-.6-.7-.8-1.6-.8-2.5s.2-1.8.8-2.5c.6-.7 1.5-1.1 2.5-1.1s1.9.4 2.5 1.1.8 1.6.8 2.5-.2 1.8-.8 2.5c-.6.8-1.5 1.1-2.5 1.1s-1.8-.4-2.5-1.1zm4.5-2.5c0-.6-.1-1.3-.5-1.8s-.9-.7-1.6-.7c-.6 0-1.2.2-1.5.7-.4.5-.5 1.1-.5 1.8 0 .6.1 1.3.5 1.7.3.5.9.7 1.5.7s1.2-.2 1.6-.7c.4-.5.5-1.1.5-1.7zm6.2-3.4c.6 0 1.1.2 1.5.5.4.4.7.9.7 1.4 0 .4-.1.7-.3 1.1-.1.1-.2.2-.2.3.2.2.4.3.5.5.2.3.4.7.4 1.1 0 .6-.3 1.1-.7 1.5-.4.3-.9.5-1.3.5h-3.9v-6.8l3.3-.1zm-2.2 2.9h2.1c.3 0 .5-.1.7-.3.1-.2.2-.4.2-.6s-.1-.4-.2-.6c-.2-.2-.4-.4-.7-.4h-2.1v1.9zm0 2.9h2.4c.3 0 .5-.1.7-.3.2-.2.2-.4.2-.7 0-.2-.1-.5-.2-.6-.2-.3-.5-.3-.8-.3h-2.3v1.9zm7.2-5.8v2.4h2c.6 0 1.1.2 1.6.6.4.4.6 1 .6 1.6s-.2 1.2-.6 1.6c-.4.4-1 .6-1.6.6h-3.2v-6.8h1.2zm0 5.6h1.9c.3 0 .5-.1.7-.3.2-.2.3-.4.3-.7 0-.3-.1-.5-.3-.7-.2-.2-.4-.3-.7-.3h-1.9v2zm14.5-2.2c0 .9-.2 1.8-.8 2.5-.6.8-1.5 1.1-2.5 1.1s-1.9-.4-2.5-1.1c-.4-.6-.7-1.2-.7-1.9h-1.1v2.8h-1.2v-6.8h1.2v2.8h1.1c.1-.7.3-1.3.7-1.9.6-.7 1.5-1.1 2.5-1.1s1.9.4 2.5 1.1c.5.7.8 1.6.8 2.5zm-1.4 0c0-.6-.1-1.3-.5-1.8-.3-.5-.9-.7-1.5-.7s-1.2.2-1.5.7c-.4.5-.5 1.1-.5 1.8 0 .6.1 1.3.5 1.7.3.5.9.7 1.5.7s1.2-.2 1.5-.7c.5-.5.5-1.1.5-1.7z" fill="#fff"/><linearGradient id="SVGID_1_" gradientUnits="userSpaceOnUse" x1="4.431" y1="97.575" x2="59.136" y2="131.535" gradientTransform="translate(0 -50)"><stop offset="0" stop-color="#2affeb"/><stop offset=".498" stop-color="#1da0cc"/><stop offset="1" stop-color="#1040ad"/></linearGradient><path d="M14.1 65.9S22.6 83 44.6 100c0 0 9.9-17.7 1.8-41.5-3.7-10.8-10.3-18.7-10.3-18.7s1.2 16.9-22 26.1z" fill="url(#SVGID_1_)"/><linearGradient id="SVGID_2_" gradientUnits="userSpaceOnUse" x1="25.205" y1="38.299" x2="55.367" y2="118.639" gradientTransform="translate(0 -50)"><stop offset="0" stop-color="#2affeb"/><stop offset=".245" stop-color="#22c3d8"/><stop offset=".501" stop-color="#1a8bc5"/><stop offset=".721" stop-color="#1562b8"/><stop offset=".895" stop-color="#1149b0"/><stop offset="1" stop-color="#1040ad"/></linearGradient><path d="M44.6 0C23.9 9 5.9 31.2 5.9 31.2s19.8 4.1 32.3 21.6c11.4 16 7.2 37.5.6 42.5-.1-.1 1.5 1.3 3.1 2.6 1.3 1.1 2.7 2.1 2.7 2.1s35.9-16.6 35.8-50c0-34.1-34.8-50.4-35.8-50z" fill="url(#SVGID_2_)"/></svg>